<?xml version="1.0" encoding="utf-8"?>
<!-- Generator: Adobe Illustrator 22.0.1, SVG Export Plug-In . SVG Version: 6.00 Build 0)  -->
<svg version="1.1" id="Layer_1" xmlns="http://www.w3.org/2000/svg" xmlns:xlink="http://www.w3.org/1999/xlink" x="0px" y="0px"
	 viewBox="0 0 150 50" style="enable-background:new 0 0 150 50;" xml:space="preserve">
<style type="text/css">
	.st0{fill:#1B75BB;}
	.st1{fill:url(#SVGID_1_);}
	.st2{fill:#0071BC;}
	.st3{fill:url(#SVGID_2_);}
	.st4{fill:url(#SVGID_3_);}
	.st5{fill:url(#SVGID_4_);}
	.st6{fill:url(#SVGID_5_);}
	.st7{fill:url(#SVGID_6_);}
	.st8{fill:url(#SVGID_7_);}
	.st9{fill:url(#SVGID_8_);}
	.st10{fill:#25A9E0;}
	.st11{display:none;fill:#1A1A1A;}
	.st12{fill:url(#SVGID_9_);}
	.st13{fill:url(#SVGID_10_);}
	.st14{fill:url(#SVGID_11_);}
	.st15{fill:url(#SVGID_12_);}
	.st16{fill:url(#SVGID_13_);}
</style>
<path class="st0" d="M23.6,40c-4.1,0-7.4-1.2-9.8-3.7c-2.4-2.5-3.4-5.5-3.1-9.2c0.2-1.9,0.6-3.4,1.2-4.6c0.2-0.3,0.5-0.6,0.9-0.7
	l0,0c2.5-1,5.2,1,4.9,3.7c0,0.5-0.1,1.1-0.1,1.6c0,4,2,6.1,5.9,6.1h0c1.7,0,3.2-1.4,3.2-3.2v-7c0-1.1,0.1-2.2,0.4-3.1
	c0.3-0.9,0.7-1.9,1.4-2.8c0.6-0.9,1.6-1.6,2.9-2.2c1.3-0.5,2.8-0.8,4.6-0.8c0.7,0,1.5,0,2.3,0c3.5,0.2,6.2,3,6.2,6.5l0,4.6
	c0,0.9,0.1,1.5,0.2,1.7c0.1,0.2,0.5,0.3,1,0.3h0.7v6.9H44c-2.7,0-4.4-0.4-5.2-1.2c-0.8-0.8-1.2-2.3-1.2-4.6v-7.5h-1.3
	c-1.8,0-2.7,1.1-2.7,3.2V30C33.6,35.5,29.1,40,23.6,40L23.6,40z"/>
<linearGradient id="SVGID_1_" gradientUnits="userSpaceOnUse" x1="59.6636" y1="19.6849" x2="43.1507" y2="29.2187">
	<stop  offset="0" style="stop-color:#25A9E0"/>
	<stop  offset="0.1308" style="stop-color:#25A9E0"/>
	<stop  offset="0.3103" style="stop-color:#1B77BC"/>
	<stop  offset="0.5385" style="stop-color:#1B75BB"/>
</linearGradient>
<path class="st1" d="M45.8,33.9V27h3c0.5,0,0.8-0.1,1-0.2c0.2-0.1,0.3-0.4,0.3-0.9v-9.4c0-0.9,0.6-1.7,1.4-2l2.6-1
	c1.4-0.5,2.8,0.5,2.8,2v10.8c0,5-2.6,7.5-7.8,7.5H45.8z"/>
<path class="st0" d="M71.7,33.9c-5.2,0-7.8-2.5-7.8-7.5V6.7c0-1.1,0.7-2,1.7-2.4l1.8-0.6C69,3.1,70.7,4.3,70.7,6v19.8
	c0,0.5,0.1,0.8,0.3,1c0.2,0.2,0.5,0.2,1,0.2h2.5v6.9H71.7z"/>
<g>
	<path class="st2" d="M90.1,12.4c-0.2,0-0.4,0-0.5,0.1c-0.2,0-0.4,0-0.6,0C89.3,12.4,89.7,12.4,90.1,12.4z"/>
	<g>
		<path class="st2" d="M91.8,12.3c-0.2,0-0.3,0-0.5,0c-0.3,0-0.6,0-0.9,0c-0.6,0-1.2,0.1-1.8,0.1c0.1,0,0.2,0,0.4,0
			c0.4,0,0.8-0.1,1.2-0.1c-0.2,0-0.4,0-0.5,0.1c-0.2,0-0.4,0-0.6,0c-3.2,0.3-5.7,1.1-7.7,2.6c-0.1,0.1-0.2,0.1-0.2,0.2
			c-1.3,1.1-2.4,2.4-3.1,3.9c-0.8,1.6-1.1,3.4-1.1,5.2c0,0.6,0.1,1.2,0.2,1.8c0.1,0.3-0.1,0.6-0.3,0.8c0,0,0,0,0,0
			C76.6,27,76.4,27,76.3,27h-3.1c-0.4,0-0.7,0.3-0.7,0.7v5.4c0,0.4,0.3,0.7,0.7,0.7h18.1c3.2,0,5.8-2.6,5.8-5.8V17.7
			C97,14.7,94.7,12.4,91.8,12.3z M90.2,26.3c0,0.4-0.3,0.7-0.7,0.7h-1.7c-1.2,0-2.2-0.2-2.8-0.7c-0.5-0.4-0.8-0.9-0.9-1.6
			c-0.3-1.7,0.5-3.5,1.9-4.4c0.6-0.4,1.4-0.7,2.2-0.8c0.1,0,0.1,0,0.2,0c0.4-0.1,0.7-0.1,1.1-0.1c0.4,0,0.8,0.3,0.8,0.7V26.3z"/>
	</g>
	<path class="st2" d="M88.6,12.4c-3,0.3-5.4,1.2-7.3,2.6c0,0,0,0,0,0c1.9-1.5,4.5-2.3,7.7-2.6C88.8,12.4,88.7,12.4,88.6,12.4z"/>
	<path class="st2" d="M81,15.2c-1.3,1.1-2.4,2.4-3.1,3.9c-0.8,1.6-1.1,3.4-1.1,5.2c0,0.6,0.1,1.2,0.2,1.8c0.1,0.3-0.1,0.6-0.3,0.8
		c0.2-0.1,0.3-0.4,0.3-0.7c0-0.1,0-0.1,0-0.2c-0.1-0.6-0.2-1.2-0.2-1.7c0-1.8,0.4-3.5,1.1-5.1C78.6,17.6,79.6,16.3,81,15.2z"/>
	<path class="st2" d="M90.1,12.4c-0.2,0-0.4,0-0.5,0.1c-0.2,0-0.4,0-0.6,0C89.3,12.4,89.7,12.4,90.1,12.4z"/>
	<linearGradient id="SVGID_2_" gradientUnits="userSpaceOnUse" x1="76.6341" y1="19.6688" x2="90.0779" y2="19.6688">
		<stop  offset="0" style="stop-color:#25A9E0"/>
		<stop  offset="1" style="stop-color:#1B75BB"/>
	</linearGradient>
	<path class="st3" d="M76.6,27h1.2c0.5,0,0.8-0.4,0.7-0.9c-0.1-0.6-0.2-1.2-0.2-1.8c0-1.8,0.4-3.5,1.1-5.2c0.8-1.6,1.9-3,3.3-4.1
		c1.9-1.4,4.3-2.3,7.3-2.6c-3.7,0.2-6.7,1-8.8,2.7c-1.5,1.1-2.6,2.5-3.3,4.1c-0.7,1.6-1.1,3.3-1.1,5.1c0,0.6,0.1,1.2,0.2,1.7
		c0,0.1,0,0.1,0,0.2C77,26.6,76.9,26.8,76.6,27z"/>
</g>
<linearGradient id="SVGID_3_" gradientUnits="userSpaceOnUse" x1="90.3565" y1="23.0975" x2="97.0425" y2="23.0975">
	<stop  offset="0" style="stop-color:#25A9E0"/>
	<stop  offset="1" style="stop-color:#1B75BB"/>
</linearGradient>
<path class="st4" d="M97,17.7c0-2.9-2.4-5.3-5.3-5.4c-0.2,0-0.3,0-0.5,0c-0.3,0-0.6,0-0.9,0c2.9,0.1,5.1,2.5,5.1,5.4l0,10.4v0v0.1
	c0,2.8-2,5.2-4.7,5.7h0.4c3.2,0,5.8-2.6,5.8-5.8L97,17.7z"/>
<path class="st0" d="M98.1,30.2L98.1,30.2c0-2.1,1.7-3.8,3.8-3.8h8.1c0.3,0,0.6-0.3,0.6-0.6v-3.1c0-2.1-0.7-3.4-2.2-3.9
	c-1-0.4-2.4-0.4-4.3,0c-1.4,0.3-2.8-0.8-2.8-2.3v-1.1c0-1.6,1.1-2.9,2.6-3.2c2.5-0.5,4.6-0.6,6.3-0.3c2.3,0.4,4.1,1.5,5.3,3.2
	c1.3,1.7,1.9,4.3,1.9,7.8v3c0,0.3,0.3,0.6,0.6,0.6h3.3c0.3,0,0.6,0.3,0.6,0.6v5.7c0,0.3-0.3,0.6-0.6,0.6h-20.3
	C99.5,33.3,98.1,31.9,98.1,30.2z"/>
<g>
	<linearGradient id="SVGID_4_" gradientUnits="userSpaceOnUse" x1="101.352" y1="15.2124" x2="111.1472" y2="15.2124">
		<stop  offset="0.1077" style="stop-color:#25A9E0"/>
		<stop  offset="0.7513" style="stop-color:#1C78BD"/>
		<stop  offset="0.9026" style="stop-color:#1B75BB"/>
	</linearGradient>
	<path class="st5" d="M104.1,18.7c1.6-0.3,3-0.3,3.9-0.1l3.1-6.6c-0.3-0.1-0.5-0.1-0.8-0.2c-1.7-0.3-3.8-0.2-6.3,0.3
		c-1.5,0.3-2.6,1.7-2.6,3.2v1.1C101.4,17.9,102.7,19,104.1,18.7z"/>
	<linearGradient id="SVGID_5_" gradientUnits="userSpaceOnUse" x1="98.8481" y1="27.7731" x2="103.0836" y2="30.2184">
		<stop  offset="0.1744" style="stop-color:#25A9E0"/>
		<stop  offset="0.541" style="stop-color:#1C7ABF"/>
		<stop  offset="0.6436" style="stop-color:#1C78BD"/>
		<stop  offset="0.8231" style="stop-color:#1D77BC"/>
		<stop  offset="0.9026" style="stop-color:#1B75BB"/>
	</linearGradient>
	<path class="st6" d="M101.3,33.3l3.2-6.9h-2.6c-2.1,0-3.8,1.7-3.8,3.8c0,1.7,1.4,3,3,3H101.3z"/>
</g>
<path class="st0" d="M56.2,30.4l-5.6-15.1c-0.3,0.4-0.5,0.8-0.5,1.4v9.4c0,0.4-0.1,0.7-0.3,0.9c-0.2,0.1-0.5,0.2-1,0.2h-3v6.9h3.4
	C52.8,33.9,55.1,32.7,56.2,30.4z"/>
<g>
	<linearGradient id="SVGID_6_" gradientUnits="userSpaceOnUse" x1="20.7037" y1="26.5943" x2="12.3948" y2="34.9032">
		<stop  offset="0" style="stop-color:#25A9E0"/>
		<stop  offset="1" style="stop-color:#1B75BB"/>
	</linearGradient>
	<path class="st7" d="M16.5,29.7c0.2-1.9,0.6-3.4,1.2-4.6c0,0,0,0,0-0.1c-0.1-2.5-2.6-4.2-5-3.3h0c-0.4,0.1-0.7,0.4-0.9,0.7
		c-0.7,1.2-1.1,2.7-1.2,4.6c-0.3,3.7,0.7,6.7,3.1,9.2c1.8,1.8,4,3,6.7,3.4c-0.3-0.3-0.6-0.6-0.9-0.9C17.2,36.4,16.1,33.3,16.5,29.7z
		"/>
	<linearGradient id="SVGID_7_" gradientUnits="userSpaceOnUse" x1="37.5926" y1="20.6793" x2="37.4374" y2="20.8344">
		<stop  offset="0" style="stop-color:#25A9E0"/>
		<stop  offset="1" style="stop-color:#1B75BB"/>
	</linearGradient>
	<polygon class="st8" points="37.5,20.6 37.5,20.6 37.5,20.9 	"/>
	<linearGradient id="SVGID_8_" gradientUnits="userSpaceOnUse" x1="43.388" y1="23.2675" x2="43.2328" y2="23.4227">
		<stop  offset="0" style="stop-color:#25A9E0"/>
		<stop  offset="1" style="stop-color:#1B75BB"/>
	</linearGradient>
	<polygon class="st9" points="43.3,23.2 43.3,23.5 43.3,23.2 	"/>
</g>
<g>
	<path class="st0" d="M122.6,26.4c0,0-0.1,0-0.1,0c0,0,0,0-0.1,0l-2,0c0.1,0,0.2,0,0.3,0L122.6,26.4z"/>
	<path class="st10" d="M127.5,12.1c0.3,0,0.7,0,1,0c-1,0-2.1,0-3.1,0c0.5,0,0.9,0,1.3,0C126.9,12.1,127.2,12.1,127.5,12.1z"/>
	<path class="st10" d="M124.1,1.5h-0.7c0.1,0,0.2,0,0.3,0C123.8,1.5,124,1.5,124.1,1.5z"/>
	<path class="st0" d="M123.6,26.4c0,0-0.1,0-0.1,0l-1,0c0,0,0.1,0,0.1,0L123.6,26.4z"/>
	<path class="st0" d="M127.8,26.4c-0.2,0-0.3,0-0.3,0l-1.9,0c0,0,0.1,0,0.1,0L127.8,26.4z"/>
	<path class="st0" d="M123.5,26.4c-0.2,0-0.3,0-0.3,0l-0.7,0c0,0,0,0,0.1,0L123.5,26.4z"/>
	<path class="st0" d="M137.9,21.5v1.7c0,7.1-3.4,10.1-10.2,10.1c-0.6,0-2.2,0-3.7,0c-1,0-2.1,0-2.9,0c-0.8,0-1.4-0.1-1.6-0.1
		c-0.7-0.3-0.5-1-0.5-1l0.1-4.1c0-0.6,0.3-1.1,0.8-1.3c0.2-0.1,0.3-0.2,0.5-0.2l2,0l0.7,0c0,0,0.1,0,0.3,0c0,0,0.1,0,0.1,0l-1,0
		c0.1,0,0.1,0,0.2,0l2.9,0c0,0-0.1,0-0.1,0l1.9,0c0,0,0.1,0,0.3,0c0.4,0,0.9-0.2,1.4-0.7c0.6-0.7,0.5-1.3,0.5-2.7v-0.4
		c0-1.1-0.2-2-0.7-2.5c-0.3-0.4-0.7-0.6-1.3-0.7c-0.3-0.1-0.6-0.1-1-0.1c-0.4,0-0.8,0-1.1,0.1c-0.2,0-0.3,0.1-0.5,0.1
		c-0.3,0.1-0.6,0.2-0.8,0.2c-0.1,0-0.2,0.1-0.3,0.1c-1.1,0.2-1.7,0.1-1.7,0.1c-0.4-0.1-0.9-0.3-1.2-0.5c-1.1-0.7-1.8-2-1.7-3.3
		l0-0.9c0.1-1.2,1.1-2,2.2-2.6c0.6-0.3,2.1-0.5,3.8-0.5c0.5,0,0.9,0,1.3,0c0.3,0,0.6,0,0.9,0c0.3,0,0.7,0,1,0c2.2,0,4.1,0.1,4.1,0.1
		C133.1,12.3,137.5,14.2,137.9,21.5z"/>
	<path class="st11" d="M131.3,4.3v2.2c0,1-0.8,1.8-1.8,1.8c0,0-0.8,0-1.9,0v0c1.6,0,3.1,0,3.1,0c1,0,1.8-0.8,1.8-1.8V4.3
		c0-1.5-1.2-2.8-2.8-2.8h-1.3C130.1,1.5,131.3,2.8,131.3,4.3z"/>
	<path class="st10" d="M127,8.3h0.6v0C127.4,8.3,127.2,8.3,127,8.3z"/>
	<path class="st10" d="M127.6,8.3h-0.2c0,0,0.1,0,0.1,0C127.6,8.3,127.6,8.2,127.6,8.3L127.6,8.3z"/>
	<path class="st10" d="M125.5,7.8c0.2-0.1,0.3-0.3,0.4-0.5h-0.4V7.8z"/>
	<linearGradient id="SVGID_9_" gradientUnits="userSpaceOnUse" x1="119.3568" y1="5.0223" x2="131.2964" y2="5.0223">
		<stop  offset="0" style="stop-color:#25A9E0"/>
		<stop  offset="1" style="stop-color:#1B75BB"/>
	</linearGradient>
	<path class="st12" d="M131.3,4.3v2.2c0,1-0.8,1.8-1.8,1.8c0,0-0.8,0-1.9,0v0c-0.2,0-0.4,0-0.7,0c-0.2,0.2-0.7,0.1-1,0.1
		c-0.4,0-0.7,0-1.1-0.1c0,0-0.1,0-0.1,0c-0.2,0-0.5,0-0.7,0h-1.4c-0.2,0-0.3,0-0.5,0c-0.3,0-0.6,0-0.9,0.1c-0.2,0-0.3,0-0.5,0.1
		c-0.5,0.1-0.9,0-1.1-0.1c0,0-0.1,0-0.1,0c-0.2-0.2-0.3-0.4-0.3-0.8l0.2-1.6c0.1-2.3,1.9-4.1,4.2-4.4c0.1,0,0.3,0,0.4,0h4.4
		C130.1,1.5,131.3,2.8,131.3,4.3z"/>
	<path class="st10" d="M127.6,8.3L127.6,8.3c-0.2,0-0.4,0-0.7,0l0,0C127.2,8.3,127.4,8.3,127.6,8.3z"/>
	<path class="st10" d="M127.6,8.2L127.6,8.2l-0.2,0c0,0,0.1,0,0.1,0C127.6,8.3,127.6,8.2,127.6,8.2z"/>
	<linearGradient id="SVGID_10_" gradientUnits="userSpaceOnUse" x1="138" y1="22.7364" x2="123.2627" y2="22.7364">
		<stop  offset="0" style="stop-color:#25A9E0"/>
		<stop  offset="6.823581e-02" style="stop-color:#23A0DA"/>
		<stop  offset="0.3473" style="stop-color:#1D81C3"/>
		<stop  offset="0.5026" style="stop-color:#1B75BB"/>
		<stop  offset="0.637" style="stop-color:#1C78BD"/>
		<stop  offset="0.7379" style="stop-color:#1D82C4"/>
		<stop  offset="0.8274" style="stop-color:#2192CF"/>
		<stop  offset="0.9105" style="stop-color:#25A8DF"/>
		<stop  offset="0.9128" style="stop-color:#25A9E0"/>
	</linearGradient>
	<path class="st13" d="M138,23.3v-1.7c-0.4-7.2-4.9-9.2-5.3-9.3c0,0-1.9-0.1-4.1-0.1c-0.3,0-0.7,0-1,0c1.7,0,2.9,0.1,2.9,0.1
		c0.4,0.1,4.9,2,5.3,9.3v1.7c0,7.1-3.4,10.1-10.2,10.1c-0.4,0-1.3,0-2.3,0c0.3,0,0.5,0,0.8,0c1.6,0,3.1,0,3.7,0
		C134.6,33.3,138,30.4,138,23.3z"/>
</g>
<linearGradient id="SVGID_11_" gradientUnits="userSpaceOnUse" x1="45.2061" y1="8.3956" x2="57.6285" y2="8.3956">
	<stop  offset="0" style="stop-color:#25A9E0"/>
	<stop  offset="1" style="stop-color:#1B75BB"/>
</linearGradient>
<path class="st14" d="M47.1,11.1L45.9,10c-0.9-0.8-0.9-2.3,0-3.1l1.2-1.1C47.9,5,49.2,5,50,5.7v0c0.8,0.7,2.1,0.7,2.9,0l0,0
	c0.8-0.7,2.1-0.7,2.9,0l1.2,1.1c0.9,0.8,0.9,2.3,0,3.1l-1.2,1.1c-0.8,0.7-2,0.7-2.8,0l0,0c-0.8-0.7-2-0.7-2.8,0l0,0
	C49.2,11.8,47.9,11.8,47.1,11.1z"/>
<linearGradient id="SVGID_12_" gradientUnits="userSpaceOnUse" x1="16.2027" y1="43.9992" x2="28.6251" y2="43.9992">
	<stop  offset="0" style="stop-color:#25A9E0"/>
	<stop  offset="1" style="stop-color:#1B75BB"/>
</linearGradient>
<path class="st15" d="M18.1,46.7l-1.2-1.1c-0.9-0.8-0.9-2.3,0-3.1l1.2-1.1c0.8-0.7,2.1-0.7,2.9,0l0,0c0.8,0.7,2.1,0.7,2.9,0l0,0
	c0.8-0.7,2.1-0.7,2.9,0l1.2,1.1c0.9,0.8,0.9,2.3,0,3.1l-1.2,1.1c-0.8,0.7-2,0.7-2.8,0l0,0c-0.8-0.7-2-0.7-2.8,0l0,0
	C20.2,47.4,18.9,47.4,18.1,46.7z"/>
<g>
	<linearGradient id="SVGID_13_" gradientUnits="userSpaceOnUse" x1="63.9098" y1="16.8726" x2="70.7901" y2="16.8726">
		<stop  offset="0" style="stop-color:#25A9E0"/>
		<stop  offset="1" style="stop-color:#1B75BB"/>
	</linearGradient>
	<path class="st16" d="M70.8,6.1c0-1.8-1.7-3-3.4-2.4l-1.8,0.6c-1,0.4-1.7,1.3-1.7,2.4v19.7c0,1.4,0.2,2.7,0.7,3.7l6.2-23.7V6.1z"/>
</g>
</svg>
